<?xml version="1.0" encoding="utf-8"?>
<!-- Generator: Adobe Illustrator 23.0.2, SVG Export Plug-In . SVG Version: 6.00 Build 0)  -->
<svg version="1.1" xmlns="http://www.w3.org/2000/svg" xmlns:xlink="http://www.w3.org/1999/xlink" x="0px" y="0px"
	 viewBox="0 0 1400.6 750.6" style="enable-background:new 0 0 1400.6 750.6;" xml:space="preserve">
<style type="text/css">
  .stroke{stroke:#888;stroke-width:5px;stroke-linecap: butt; stroke-linejoin: miter;paint-order:stroke;}
	.st0{fill:none;}
	.st1{font-family:'vision','Century','Arial','Verdana','Verdana';}
	.st2{font-size:121.8898px;}
	.st3{letter-spacing:2;}
	.st4{font-family:'vision','Century','Arial','Verdana'; font-weight: bold;}
	.st5{font-size:127.5029px;}
	.st6{font-size:51.0236px;}
	.st7{letter-spacing:-0.9;}
	.st8{fill:none;stroke:#000000;stroke-width:0.2835;stroke-linecap:round;stroke-miterlimit:2;}
</style>
<g id="Calque_1">
	<rect x="397.4" y="199.6" class="st0" width="837.9" height="292.7"/>
	<text transform="matrix(1 0 0 1 397.4117 284.8912)"><tspan x="0" y="0" class="st1 st2 st3 stroke">Atelier </tspan><tspan x="0" y="136.1" class="st4 st5 st3 stroke">1Roue2Mains</tspan></text>
	<rect x="397.4" y="477.3" class="st0" width="1024.6" height="80"/>
	<text transform="matrix(1.0912 0 0 1 397.4114 512.9784)" class="st1 st6 st7">créations • savoir-faire • nouveaux récits</text>
</g>
<g id="Mode_Isolation">
	<g id="XMLID_51_">
		<g>
			<path d="M277.2,363.8c-0.4,0.8-0.6,1.7,0.1,2.3c0.8,0.7,1.6,0,2.4-0.5c2.3-1.8,3.9-4.3,6.6-5.6c-0.3,1-0.5,2-0.8,2.9
				c-1.5,4-1.5,4.1,2.9,3.9c3.2-0.1,6.6-0.6,9.6-0.5c3.2,0.1,5.9,0.4,8.5-1.6c-0.7,0.6-1.3,1.5-0.2,2.1c1.4,0.7,3,0.9,4.3-0.2
				c1.5-1.3,3-2.7,4.3-4.2c1.5-1.7,3.8-3.8,2.2-5.8c-1.7-2.2-3.4,1-5.1,1.5c-0.1,0-0.2,0-0.3,0.1c0.8-1.4,0.8-2.3-1.2-2.3
				c-1.9,0.1-3.3,1.1-4.7,2.3c-0.2,0.2-0.6,0.3-0.9,0.5c0-1.2,1.7-1.4,1.3-2.9c-0.4,0-0.9-0.2-1.4-0.1c-3.1,0.5-4.8-0.4-4.3-4
				c0-0.3,0-0.7-0.1-1.1c-0.2-3-1.3-3.3-3.4-1.2c1-1.4,3.7-2.9,1.2-4.5c-4.2-2.7-5.7-2.1-9.1,2.1c-1.8,2.1-3.6,4.3-4.8,6.8
				c-0.4,0.8-0.8,1.8-1.8,1.7c-2.6-0.2-3.4,1.9-4.8,3.2c-0.2,0.1-0.1,0.6-0.1,0.9c1.3,0.2,1.4-1.8,3-1.2
				C280.3,360.9,279.2,362.6,277.2,363.8z M277.2,363.8c-2.8-1-4.6,0.6-6.9,2.1c1.8,1,3.1,1.2,4.2,0
				C275.3,365.1,275.9,363.9,277.2,363.8z M265.8,606.2c-1.2,1-2.6,1.9-3.6,3c-1.7,1.9-1.1,3.4,1.4,3.8c-0.7,0.9-1.6,1.7-2.1,2.7
				c-0.6,1.2-0.1,2.7,0.6,3.5c0.9,1,1.8-0.3,2.5-0.9c2.2-1.6,3.9-3.9,6.8-4.4c-1.6,1.2-1.6,3-1.8,4.8c0,0.8-0.1,2-1.5,1.4
				c-3-1.2-3-1.2-4.9,1.4c0.7,0.9,1.6,0.3,2.5,0.4c3.1,0.4,4.9-2.2,7.6-2.8c0,0,0,0,0,0.1c0,0,0,0,0.1,0c0,0.9-1.6,1.3-0.9,2.1
				c0.7,1,2.3,0.8,3.2,0.4c1.4-0.7,0.9-2.3,0.9-3.9c-1.2,0.5-2.2,1-3.1,1.4c0,0,0,0,0-0.1h0c0.6-1.4,2.1-2,3-3.1
				c1.2-1.6,1.2-3.6,0.1-4.9c-1-1.2-2.1,0.5-3,1.1c0.8-1.2,2.2-2.2,1.3-3.9c-0.4-0.8-1.1-1.6-2.1-1.3c-1.4,0.4-2.9,1.1-2.8,2.7
				c0.1,4.4-2,3-4.2,1.9c0.6-0.8,1.1-1.6,1.7-2.4C269.1,607,268.2,606.1,265.8,606.2z M254.9,159.8c1.1-1.8,2.4-5.1,3.3-5
				c4,0.5,4.6-3.1,7.7-4.7c-2.4-0.4-4.8-1.2-5.3,0.2c-1.2,3.7-4.9,3.1-7.1,4.9h0c0.2-0.8,1.1-1.2,1.6-1.8c0.9-1.1,3-2.1,1.8-3.7
				c-1.2-1.5-2.9-0.3-4.3,0.7c-1.8,1.4-3,3.2-4,5.1c-0.5,0.9-1.6,1.7-0.9,2.6c0.8,1.3,1.7-0.1,2.5-0.5c1.1-0.6,1.8-2,3.3-2.4
				c0,0,0,0,0,0.1h0c-0.9,1.9-2.8,2.8-4.2,4.2c-0.9,1-2.6,1.8-1.3,3.4c1.4,1.6,2.5-0.3,3.6-0.8C252.7,161.4,253.5,160.1,254.9,159.8
				z M265.8,606.1L265.8,606.1c0.4-0.7,1.2-1.6-0.1-1.9c-1.5-0.3-3.6-0.6-4.3,1.2c-0.6,1.5-0.4,3.1-2.6,1.2c-1-0.9-2,0.5-2.8,1.1
				c0.2-0.9,1-1.7,0.8-2.8c-4.7,0.5-6.8,2.2-7.5,6.4c1.9-1.2,3.6-2.3,5.4-3.4c-1.2,2-3,3.3-4.8,4.6c-1.6,1.2-2.7,2.7-1.6,4.9
				c3.5-0.9,5.4-4.3,8.9-5l0,0c0,0,0,0,0.1,0c-0.1,0.6-0.7,0.8-1.2,1.2c-2.3,1.7-4.7,3.4-7,5.1c-1,0.7-1.4,1.8-0.9,3
				c0.3,0.7,0.9,0.8,1.5,0.5c3.1-1.9,6.8-3.1,9-6.1c1.2-1.6,1.8-3.6-1.5-3.7c0,0,0,0,0-0.1h0C259.4,609.4,262,606.9,265.8,606.1z
				 M254.8,160c-1.5,1.5-3.1,3.1-4.6,4.6c-1.3,1.4-0.3,2.6,0.5,3.7c1,1.2,1.8,0.2,2.5-0.5c1.5-1.7,4.2-2.4,4.1-5.5
				c0-0.9,0.9-1,1.7-0.5c1,0.6,1.9,0.5,2.7-0.3c-0.4,0.8-0.8,1.5-1.3,2.3c-0.9,1.3-1.8,3.2-0.2,3.9c0.9,0.3,3.8,0.7,4.4-1.7
				c0.7-2.9,2.8-4.1,5.3-4.6c-0.9,1.3-2,2.6-1.8,4.4c0.1,1,0.5,2,1.6,1.1c2.3-1.7,4.8-3.4,6-6.2c0.4-1,0.7-2.4-0.3-3.2
				c-0.7-0.6-1.3-0.4-1.9,0c1.2-1.1,2-2.4,2.1-4.1c0-0.7,0.3-1.6-0.5-2c-0.8-0.4-1.3,0.4-1.9,0.8c-3.6,2.8-5.4,7.5-10.1,8.9
				c0.8-1.2,1.9-2.4,2.5-3.8c0.6-1.5,1.7-3.8,0.2-4.8c-1.3-0.9-2.4,1.2-3.6,2.1C259.8,156.3,259.3,161,254.8,160z M229.9,415
				c-0.9,3.4-4.5,5.1-6.1,9c2.1-1.1,3.7-1.9,5.2-2.7c-1.5,2.3-3.6,3.4-5.7,4.6c-0.5,0.3-1.1,0.7-1,1.5c0.2,0.8,1,0.5,1.6,0.7
				c2.4,0.6,3.4-1.4,4.6-2.7c5.5-5.3,10.7-11,14.8-17.7c-4.1-1.3-6.6,0.6-8.7,3.4C233.4,412.8,232.2,414.5,229.9,415z M229.8,415.1
				c0.4-2.5,2.2-3.8,4.1-5.1c0.6-0.4,2.2-1.6,0.4-2.1c-1.9-0.5-4.2-1-5.8,1.4c-1.2,1.9-2.9,3.5-4.4,5.2c-1.4,1.6-3,3.2-4.3,4.9
				c-1.2,1.6-0.6,3.5,0.6,4.5c1.3,1.1,1.7-0.9,2.5-1.5C225.5,420.2,226.9,416.9,229.8,415.1z M338.8,380.6c0.7,4.3,0.2,8.6-0.3,13
				c-0.2,2.4-2.1,3.3-4.3,3.7c-4.2,0.7-6.8,2.7-6.5,7.6c0.2,3.2-0.3,6.4-0.7,9.5c-0.2,1.8,0.1,4-2.8,4.1c-1.6,0.1-0.6,1.6-0.6,2.5
				c0,4.4-0.6,4.9-5.1,4.8c-2.9,0-5.9,0.1-8.8,0c-3.4,0-6.9-0.8-8.5,3.7c-0.4,1.2-2.2,2.1-3.6,2.6c-1.2,0.4-2.5,0.9-2.5,2.5
				c0,0.3-0.2,1-0.3,1c-4.3-0.3-5.8,5.3-10,4.7c-2.2-0.2-4.1,0.8-6.3,0.6c-1.8-0.2-1.3,2.1-1.3,3.4c0.1,14.6,0.3,29.3,0.6,43.9
				c0.5,29.7,0.9,59.3,0.7,89c-0.1,0.6-0.3,1.3-0.4,2c-0.9-34.6-0.7-69.2-2.5-103.7c-0.2,13.1-0.5,26.1-0.8,39.2
				c-0.4,27.8-0.8,55.5-1.4,83.2c0,3,0.7,5.1,3.7,6.9c0.8-6.8-0.1-18.2,1-25.5c0.3-0.7,0.4-1.4,0.4-2.1c0,2.5,0.1,11,0.1,13.5
				c0.2,6.6,0.1,13.2,1.4,19.7c0.9,4.3,0.4,8.9-0.6,13.3l-35.1,0c1.2-12.6,0.9-25.2,0.8-37.7c-0.1-39.6-0.1-79.2-0.4-118.7
				c0-8-1.2-16-1.7-24c-0.1-2.3-1.1-3.1-3.3-3c-1.8,0.1-3.6-0.2-5.3,0c-2.3,0.3-4.1,0.6-3.9-2.7c0.1-1.8-1.5-1.6-2.4-1
				c-2.7,1.6-3.2-0.3-3.5-2.1c-0.7-3.2-6.9-6-7.5-7.7c-0.5-1.4-1.8-1.2-2.9-1.2c-7,0-14,0.1-21,0.3c-4.1,0.1-6.2-2.4-5.4-6.3
				c0.3-1.6,1.7-1.1,2.7-1.5c1-0.3,2.5,0.7,2.9-1c0.1-0.5-0.2-1.4-0.6-1.6c-1.2-0.7-2.1,0.1-3.1,0.7c-0.5,0.3-1.1,0.7-2.1,1.1
				c3-2.7,1-4.1-0.9-5.5c-0.8-0.6-2.1-1-2.1-2.1c0-3.9-2.1-4.2-4.6-4.2l0.8-35.7c0.5,0,1.1,0,1.7,0c1.8,0,2.6-0.7,2.6-2.5
				c0-1,0-2,0.1-3.1c0.6-6.3,0.6-6.3,7-7.2c0.5,0,1-0.1,1.2-1c-0.4-1-1.5-0.8-2.5-0.7c-2.1,0-4.2,0.4-3.9-3c0.2-2.7,0.7-4,4-3.9
				c7.1,0.4,14.2,0.1,21.4,0.2c2,0,3.6-0.2,3.9-2.6c0.2-1.3,1.3-2.1,2.2-3c1.8-1.6,4.9-1.8,4.9-5c4.1-0.2,6.6-2.6,8.7-5.8
				c0.6-0.8,2.3-0.8,3.6,0.1c1.5,1.1,3.5,0.5,5.2,0.9c2.7,0.5,3.2-0.7,3.3-3.1c0.6-9.9,0.1-19.8-0.2-29.7
				c-0.5-20.4-0.7-40.7-0.6-61.1c0-13-0.3-25.9-0.7-38.9c-0.4-13,1-25.9,0.8-38.9c-0.1-6.3,2.9-12.7-0.1-19.1
				c-0.3-0.6,0.1-3.8,3.5-3.5c9.1,0.6,18.3,0.6,27.5,0.9c1.5,0,2.8,0,3.1,2c0.8,7.1,2,14.4,0.9,21.5c-3.9,24.7-2.1,49.7-2.2,74.5
				c-0.1,29.5,0.1,59.1,0.2,88.6c0,3.9,1.6,5.2,5.1,5.2c1.4,0,2.8,0,4.2,0.1c0.6,0,1.8,0.1,1.8,0.2c0.1,4.5,5,3.7,7.1,6.1
				c1.8,2.2,4.7,3.5,8.1,3.1c-1.6,2.5,0.2,4.6,0.6,6.9c0.2,1.3,1.6,0.7,2.6,0.8c5.1,0,10.1,0.1,15.2,0.2c2.2,0,3.2,1.1,3.2,3.3
				c0,1.8,0.6,3.7-2.3,3.6c-1.6,0-2.4,1.3-2,2.6c0.5,1.6,1.6,0.2,2.5,0c4.4-1.3,8.1,1.8,7.5,6.3c-0.1,0.9,0,1.8-0.2,2.7
				c-1,3.6,0.1,5.6,3.9,6.4C336.9,375,338.3,377.5,338.8,380.6z M335.2,392.2c1.2-4.2,1.2-8.5,0.2-12.7c-0.5-2.2-2.9-2.9-4.9-2.8
				c-2.3,0.2-1.4,2.4-1.6,3.7c-0.3,2.4-0.3,4.8-0.5,7.2c0,0,0,0,0.1,0c0,2,0,4.1,0,6.1c0,0.8-0.2,2.1,1.1,1.8
				C331.8,395,334.5,394.6,335.2,392.2z M326.9,367.6c0.1-1.2,0.8-3.1-1.6-3c-0.5,0-0.6-0.4-0.3-0.7c0.6-0.6,1.8-1.1,0.4-1.9
				c-0.9-0.5-2-0.2-2.9,0.3c-2.8,1.8-2.5,9.3,0.4,10.8c0.7,0.4,1.4,0.8,1.3,1.7c0,0.6-0.5,1.3-1.2,1.1c-3-0.7-2.3,1.3-2.2,2.9
				c0.6,7.1-0.6,14.2,0.6,20.6c-0.1,1.1-0.2,1.5-0.1,1.9c0.2,0.8-0.6,2.2,0.9,2.4c0.8,0.1,2-0.2,2.4-0.8c0.9-1.4-0.6-1.5-1.4-2
				c-1.3-0.8-2-2.2,0-2.6c2.1-0.3,2-1.5,2-2.9C325.3,386.1,325.9,376.8,326.9,367.6z M318.3,394.9c0-5.3,0-10.7,0-16
				c0-2.7-1.2-3.7-4-3.6c-9.4,0.2-18.7,0.1-28.2-0.5c-19.5-1.3-39.1,1.4-58.7-0.4c-9.8,0-19.6,0-29.4,0c-1.7,0-3.3-0.1-3.1,2.1
				c0.5,7.3-0.8,14.5,0,21.7c0.2,2.1,1.3,2.6,3,2.5c7.8-0.1,15.5-0.2,23.2-0.4c13.9-0.4,27.9-0.4,41.8-1.8
				c7.6-0.7,15.2,0.2,22.7,0.1c3.7,0,7.3-0.3,11-0.1c6.2,0.3,12.5,0.3,18.6-0.8C316.9,397.4,318.3,397,318.3,394.9z M317.7,417.2
				c0-2.7,0-5.4,0-8.9c-2.6,3.5-4.8,6.4-7.1,9.5c2.1,2.2,4.3-3.2,6.1,0.7C316.8,418.5,317.7,417.9,317.7,417.2z M317.2,406.2
				c0.9-1.5,0-2-1.4-2.1c-1.4-0.1-2.5,0.5-3.2,1.6c-1.4,2.5-3.7,4.1-5.7,6c-1.8,1.8-4,3.5-4.7,6.4c2.4,0.2,4.7,0.9,6.6-0.8
				C312.2,414.1,314.6,410,317.2,406.2z M314.8,367.2c2.1,0.4,2.7-0.8,2.6-2.8c-0.2-0.5,0.6-2.1-0.8-1.8c-1.7,0.3-2.8,1.8-3.5,3.3
				C312.5,367.4,314.1,367.1,314.8,367.2z M309.1,408.1c0.9-0.8,2.2-2.1,1.6-3.2c-0.7-1.4-2.5-0.6-3.8-0.4c-1.5,0.2-2.4,1.4-3.3,2.5
				c-3.7,4.2-7.6,8.2-11.3,12.4c-4.1,4.5-8.6,8.6-12,13.9c3,1.5,5,0.8,7.1-1.5C294.8,423.8,301.2,415.3,309.1,408.1z M300.2,408.8
				c1-1,2.9-2.4,2.2-3.6c-1.1-1.7-3.3-0.6-4.9,0c-1,0.3-1.9,1.2-2.7,2c-4.6,4.9-9.3,9.7-13.5,14.9c-1.8,2.2-5,3.7-5.1,7
				c0.4,1.3-0.3,2.7,1,3.3c1.6,0.7,2.2-0.8,3-1.7C286.9,423.4,293.6,416.1,300.2,408.8z M294.2,428.4c5.4-0.7,7.1-2.9,5.6-8.9
				c-3.8,4.4-7.2,8.3-10.5,12.3c-0.3,0.4-1,0.9-0.6,1.6c0.4,0.6,1.2,0.8,2,0.7c1.6-0.2,2-1.2,1.9-2.7
				C292.6,430.1,292.5,428.6,294.2,428.4z M294.5,405.5c-5.3-0.9-8.9-0.1-11.9,3.9c-3.3,4.4-7.3,8.4-11.3,12.3
				c-3.9,3.7-7.4,7.6-11.2,11.5c7.7,2.9,14-1.5,13.9-9.2c0-0.8-0.4-2,0.6-2.4c1.4-0.4,1.4,1.1,1.8,1.9c0.2,0.4,0.2,1,1.3,0.8
				C283,418.3,288.6,412.1,294.5,405.5z M288.9,340.9c-3-0.6-5,0.2-6.8,2.2c-1.7,1.8-3.4,3.8-5.7,4.9c1.5-2.6,4.5-3.9,5.9-6.7
				c-4.6-1-4.6-1-5.8,3c-0.1,0.5,0,1.1-0.6,1.2c-0.6,0.1-1-0.2-1.1-0.7c-0.4-7.2-2.8-1.8-4.5-0.7c-0.6,0.4-1,1.4-2,1.1
				c0.5-1.7,2.5-2.3,2.7-4.1c-3.6-0.8-6.9-1.4-9.9,1.2c0.3-1.9-0.9-1.8-2.2-2.1c-3.2-0.6-5.7,0.9-8.4,2.3c0,0,0,0,0-0.1
				c0.3-0.7,1.2-1.5-0.1-1.9c-0.9-0.3-2.3-0.6-3,0.6c-0.5,0.8-0.3,1.9,0.4,2.4c1.3,1,1.9-0.5,2.7-1.1c0,0,0,0,0,0.1s0,0,0,0
				c-2.6,3.4-3.4,6.9-0.4,10.6c-1.4,2,0.6,3.8,0.4,5.8c-0.1,1.4-0.1,3.1,2.2,1.8c1.4-0.7,1.3,0.9,1.6,1.4c0.6,1.1-0.3,1.6-1.3,1.7
				c-1.4,0.2-2.3,1.3-1.4,2.3c1,1.2,2.8,0.7,4.3,0.5c1.2-0.1,2.1-1.4,1.8-2.1c-1.5-3.4,1-2.7,2.7-3c0.9-0.1,1.7-0.6,2.5-0.9
				c-0.7,1.6-1.6,3.1-3.3,4.1c-0.7,0.4-1.7,1.1-0.3,1.9c2.7,1.5,9.1-0.5,10.7-3c1.5-2.3,4.9-3.2,4.9-6.7c0-0.4,0.9-0.2,1.3,0
				c1.1,0.7,1.7-0.1,2.3-0.7C283.3,352.1,286.4,346.8,288.9,340.9z M283.9,405.7c-4.1,0.2-7.4-0.9-9.9,2c-0.6,0.6-1.9,1.8,0,2.2
				c2.1,0.4,1.7,2.5,3.2,3.7C279.2,411.1,281.2,408.8,283.9,405.7z M275,247.6l0-77.5c-3.1,1.1-3.7,3.1-3.6,6
				c0.4,10.5,0.7,21.1,1,31.6C272.8,221.1,273.1,234.4,275,247.6z M272,338c2,0,2.7-0.7,2.6-2.7c-0.1-2.7-0.1-5.5-0.2-8.3
				c-0.4-14.5-0.9-29-1.4-43.4c0,0,0,0-0.1,0c-0.8-22.5-1.6-45-2.4-67.5c-0.5-13.5-0.9-26.9-1.2-40.4c0-2.6-0.8-3.7-3.5-3.5
				c-3,0.1-6.1,0.1-9.1-0.1c-2.7-0.1-3.6,0.8-3.5,3.5c0.2,7.3,0.5,14.5,0.2,21.7c-1.1,28.7-2.5,57.4-3.8,86.2
				c-0.8,16.8-1.7,33.6-2.5,50.3c-0.1,2.1-0.6,4.2,2.7,4.1C257.2,337.8,264.6,337.9,272,338z M273.8,440.4c0-2.6-0.5-3.6-3.3-3.7
				c-6.5,0-13-0.5-19.5-0.6c-4.3-0.1-6,2-5.6,6.3c0.1,1,0.3,2,0.3,3.1c1.5,23.9,2.9,47.7,4.5,71.6c1.8,25.8,3.7,51.6,4.9,77.4
				c0.3,6.5,0.3,6.5,6.9,6.4c1.5,0,3.1-0.2,4.6,0c3.1,0.4,4.2-0.6,4.3-3.9c0.5-26.2,1.1-52.4,1.7-78.6c-0.1,0-0.1,0-0.2,0
				C272.9,492.3,273.3,466.3,273.8,440.4z M273,418.3c2.1-2,1.5-4.3,0.2-5.8c-1.2-1.5-3.3-0.6-4.6,0.7c-1.1,1.1-2.1,2.2-3.2,3.3
				c-4.2,4.1-7.6,9-12.6,12.3v0c0,0-0.1,0-0.1,0c0-0.7,0.4-1,0.9-1.5c4.1-4.3,8.2-8.6,12.3-13c0.5-0.6,2.4-1.5,0.1-2.4
				c-0.7-0.2-1.7-0.3-1.5-1.3c0.2-1.2,1.4-1,2.2-0.9c2.9,0.4,4.8-0.5,5.7-3.4c-4.2-0.6-6-0.2-8.2,2.2c-3.6,3.9-7.8,7.1-11.5,10.8
				c-4.3,4.3-8.9,8.3-12.9,13.3c3.1,0.8,5.6,1.5,5.4-2.7c0-0.6,0.3-1.3,1-1.4c0.7,0,1,0.6,1.3,1.2c0.2,0.7,0,1.6,0.9,2
				c1.8-0.3,2.4-2.5,4.2-2.9c0,0,0,0,0,0.1c0,0,0.1,0,0.1-0.1c-0.3,1.7-2.4,2.6-2.5,4.5c4.2,1.3,7.6,0.5,10.6-2.8
				C264.8,426.2,268.9,422.2,273,418.3z M273.1,150.2c-4.2-0.4-4.2-0.4-4.9,4.6C270.4,153.3,272.1,152.3,273.1,150.2z M259.3,409.4
				c1.3-0.5,3.9-0.2,3.2-2.2c-0.4-1.3-3-0.5-4.5-0.5c-0.6,0-1.3,0-1.9,0.1c-1.2,0.5-3.6,0.6-0.9,2.6c1.6,1.1,0.4,1.9-0.6,1.9
				c-3.6-0.2-5.6,1.1-6,4.8c0,0.3-0.7,0.7-1.1,0.7c-2.4,0.1-3.4,2-4.8,3.4c-3.1,3.1-5.5,6.9-9.3,9.4c0,0,0,0,0-0.1c0,0,0,0-0.1,0.1
				c1.6-3.2,4.5-5.3,6.6-8.2c2.1-2.8,5.7-4.7,6.5-8.2c0.6-2.5,0.1-4.8,3.9-4c0.3,0.1,0.9-0.7,1.3-1.2c0.1-0.1-0.1-0.7-0.3-0.9
				c-0.8-0.8-6,0.4-6.7,1.5c-4.4,5.9-8.7,11.9-14.2,16.7c-2.8,2.4-3.2,4.3-1.3,7.3c1.5-1.1,2.9-2,4.3-3c0,0,0,0,0,0h0
				c-0.6,0.9-1.4,1.7-1.2,3c1.7,0.3,4.1,1.3,5.1,0c3.2-3.8,9-5.7,8.7-12.1c0-0.7,0.1-1.7,0.8-2c0.9-0.4,1.4,0.4,1.6,1.1
				c0.4,0.9,0.9,1.2,1.7,0.5c2.5-2.5,5.1-4.9,7.6-7.5C258.7,411.7,257.8,410,259.3,409.4z M258.1,622.3c1.7-0.3,1.7-1.6,1.2-3
				c-0.7-1.7-1.7-0.9-2.7-0.2c-1.3,1-2.7,2.1-4.1,3.1c0.1,0.3,0.2,0.6,0.4,0.8C254.7,622.8,256.4,622.6,258.1,622.3z M249.6,603.8
				c4.3-2,4.1-5.5,3.8-9.3c-0.9-11.9-1.7-23.9-2.6-35.8c-1.4-21.2-2.9-42.4-4.3-63.5c-0.4,36.8-1,73.6,0.7,110.8
				C248.4,605.4,248.8,604.1,249.6,603.8z M251.3,181.8c0.4-6.8-2.7-11.3-5.9-16.4c-1.5,47.5-1.4,95,0.1,142.6
				c0.4-1.5,0.7-3,0.8-4.4c0.8-16.8,1.7-33.6,2.4-50.4C249.6,229.4,249.8,205.6,251.3,181.8z M249.3,365.9c0.2-1.7-1.2-2.2-2.8-2.2
				c-0.9,0-2,0.1-2.2-1c-0.1-1.1,0.9-1.4,1.8-1.4c1.8,0,2.2-1,1.7-2.5c-0.8-2.2-2-1.3-3.2-0.3c1.9-2.2,3.7-4.5,1.9-7.7
				c-0.9-1.5-1-3.1-0.9-4.9c0.3-3.2-1.1-3.9-3.9-2.2c0.6-1.6,0.9-2.8-1.7-2.7c-1.7,0.1-3.2,0.4-4.3,1.8c-1.6,1.7-3.3,3.5-5.5,4.6
				c1.3-2.1,4.1-3.1,4.4-6.2c-2.2,0.1-4.4-1-6,0.7c-2.7,3.1-7.2,4.5-8.8,8.6c-1.4,3.5-4.1,5.2-6.9,6.9c0.4-0.5,0.6-1.1,0-1.9
				c-0.9-1.1-2.6-0.7-3.9-0.1c-1,0.4-2,1-3,1.6c0,0,0.1-0.1,0.1-0.1c0,0-0.1,0-0.1,0.1c0-0.5,0.4-1.3-0.5-1.5
				c-2.6-0.6-4.9,0.6-6.9,2c-0.8,0.6-2.3,2.2-1.1,3.4c0.9,0.9,2.6,0.5,3.8-0.4c1.5-1.2,3.1-2.4,4.6-3.5c-0.7,0.8-1.6,1.5-2.1,2.4
				c-0.5,0.7-2,1.3-1.1,2.4c0.7,0.9,2.2,0.8,3.2,0.4c1.5-0.6,2.9-1.5,4.3-2.3c-0.4,0.8-1.9,1.6-0.7,2.5c1.1,0.8,2.6,0.9,4,0
				c1.2-0.8,2.1-2.3,3.7-2.5c-1.6,2-1.7,2.8,1.4,3.4c3.5,0.6,4.7-2.4,7.3-3.2c-0.5,1.4-3.3,2-1.3,4.3c2.7,3.2,3.9-1,6-1.2
				c-0.1,1.1-2.1,2.7,0.9,2.6c2.1-0.1,4-0.4,5.9-1.2c0,1.7,1.3,1.6,2.4,1.7c2.2,0.1,4.3,0.2,6.5,0.2
				C247.4,366.5,249.1,367.4,249.3,365.9z M214.2,417.8c4.6,1.1,8.1-1.2,11.4-7.7C220.3,410.5,216.2,412.6,214.2,417.8z
				 M208.2,418.4c2.1,0.7,9-4.6,8.7-6.8c-0.2-1-1-0.9-1.8-0.9c-1.8,0-7.2,4.6-7.7,6.4C207.2,417.8,207.4,418.1,208.2,418.4z
				 M215.6,404.9c0.3-0.4,0-1-0.6-1c-2.7,0.2-5.7-0.5-7.7,3.3c2.5-0.6,4.4-0.9,6.4-0.7C214.3,406.5,215.1,405.5,215.6,404.9z
				 M211.5,410.8c-6.7-0.6-8.6,4.2-12.5,7.3C206.3,419.5,207.4,413.9,211.5,410.8z M202.5,413.1c0.6-0.5,1.8-1.1,0.9-2
				c-0.3-0.4-1.6-0.5-2.1-0.2c-2.5,1.5-5.1,3.2-4.3,7.6C198.7,416.7,200.6,415,202.5,413.1z M192.8,362.5c0.1-2-0.7-2.5-2.4-2.3
				c-2.1,0.2-1.8,1.7-1.9,3.1c-0.7,10.5-0.7,21.1-1,31.6c0,4.2,0.1,8.4,0,12.6c-0.1,2.7,1.6,4,3.7,4c2.5,0,1.3-2.4,1.2-3.6
				C191.9,392.7,191.7,377.5,192.8,362.5z"/>
			<path d="M335.4,379.5c1,4.2,1,8.6-0.2,12.7c-0.7,2.4-3.4,2.9-5.6,3.3c-1.3,0.2-1.1-1-1.1-1.8c0-2,0-4.1,0-6.1c0,0,0,0-0.1,0
				c0.1-2.4,0.2-4.8,0.5-7.2c0.2-1.3-0.6-3.5,1.6-3.7C332.5,376.5,334.8,377.3,335.4,379.5z"/>
			<path d="M278.5,577.3c0,0.7,0,1.4-0.4,2.1c0,0,0-0.1,0-0.1C278.2,578.6,278.3,577.9,278.5,577.3z"/>
			<path d="M276.4,611.1c1.1,1.3,1.1,3.4-0.1,4.9c-0.9,1.1-2.4,1.7-3,3.1c-2.7,0.5-4.5,3.2-7.6,2.8c-0.8-0.1-1.8,0.4-2.5-0.4
				c1.9-2.7,1.9-2.6,4.9-1.4c1.4,0.5,1.5-0.6,1.5-1.4c0.2-1.8,0.2-3.6,1.8-4.8c-2.9,0.5-4.6,2.8-6.8,4.4c-0.7,0.5-1.6,1.9-2.5,0.9
				c-0.8-0.8-1.2-2.3-0.6-3.5c0.4-1,1.4-1.8,2.1-2.7c-2.5-0.3-3.1-1.8-1.4-3.8c1-1.1,2.4-2,3.6-3c2.5,0,3.3,0.8,1.6,3
				c-0.6,0.8-1.1,1.6-1.7,2.4c2.2,1.1,4.3,2.5,4.2-1.9c-0.1-1.5,1.4-2.3,2.8-2.7c0.9-0.2,1.7,0.5,2.1,1.3c0.9,1.7-0.5,2.7-1.3,3.9
				C274.3,611.6,275.4,609.9,276.4,611.1z"/>
			<path d="M276.4,617.9c0,1.6,0.5,3.2-0.9,3.9c-0.9,0.4-2.4,0.6-3.2-0.4c-0.6-0.8,0.9-1.2,0.9-2.1
				C274.3,618.8,275.3,618.4,276.4,617.9z"/>
			<path d="M275,170.1l0,77.5c-1.9-13.2-2.2-26.5-2.6-39.9c-0.3-10.5-0.5-21.1-1-31.6C271.3,173.2,271.9,171.2,275,170.1z"/>
			<path d="M273.3,619.2C273.3,619.2,273.3,619.3,273.3,619.2C273.3,619.3,273.3,619.3,273.3,619.2
				C273.2,619.2,273.3,619.2,273.3,619.2L273.3,619.2z"/>
			<path d="M257.3,612.3C257.3,612.4,257.2,612.4,257.3,612.3c-0.1,0.1-0.1,0.1-0.1,0.1L257.3,612.3L257.3,612.3L257.3,612.3z"/>
			<path d="M253.5,155.2C253.5,155.2,253.4,155.2,253.5,155.2L253.5,155.2L253.5,155.2z"/>
			<path d="M253.4,594.5c0.3,3.8,0.4,7.3-3.8,9.3c-0.7,0.3-1.1,1.6-2.4,2.2c-1.7-37.1-1.2-73.9-0.7-110.8
				c1.4,21.2,2.9,42.4,4.3,63.5C251.6,570.6,252.4,582.6,253.4,594.5z"/>
			<path d="M252.8,428.7L252.8,428.7c0,0.1-0.1,0.1-0.1,0.1c0,0,0,0,0-0.1C252.7,428.7,252.8,428.7,252.8,428.7z"/>
			<path d="M251.3,407c0.2,0.1,0.4,0.7,0.3,0.9c-0.3,0.5-0.9,1.3-1.3,1.2c-3.7-0.8-3.3,1.5-3.9,4c-0.8,3.5-4.4,5.4-6.5,8.2
				c-2.1,2.8-5,5-6.6,8.2c-1.4,1-2.8,1.9-4.3,3c-1.9-3-1.5-4.9,1.3-7.3c5.5-4.8,9.8-10.8,14.2-16.7
				C245.3,407.4,250.5,406.2,251.3,407z"/>
			<path d="M245.4,165.4c3.3,5.1,6.4,9.6,5.9,16.4c-1.5,23.7-1.7,47.5-2.6,71.3c-0.6,16.8-1.6,33.6-2.4,50.4c-0.1,1.5-0.3,3-0.8,4.4
				C244,260.4,243.9,212.9,245.4,165.4z"/>
			<path d="M250.4,342.3C250.3,342.4,250.3,342.4,250.4,342.3C250.3,342.4,250.3,342.4,250.4,342.3L250.4,342.3z"/>
			<path d="M234.7,411.1c2-2.8,4.5-4.7,8.7-3.4c-4.1,6.8-9.2,12.4-14.8,17.7c-1.3,1.2-2.2,3.3-4.6,2.7c-0.5-0.1-1.3,0.1-1.6-0.7
				c-0.1-0.7,0.4-1.2,1-1.5c2.1-1.2,4.2-2.3,5.7-4.6c-1.5,0.8-3.1,1.6-5.2,2.7c1.5-3.9,5.1-5.6,6.1-9
				C232.2,414.5,233.4,412.8,234.7,411.1z"/>
			<path d="M233.4,429.4C233.4,429.4,233.4,429.4,233.4,429.4L233.4,429.4C233.4,429.4,233.4,429.4,233.4,429.4z"/>
			<path d="M233.3,429.5L233.3,429.5L233.3,429.5C233.3,429.5,233.3,429.5,233.3,429.5z"/>
			<path d="M212.9,357.4C212.9,357.4,212.9,357.3,212.9,357.4c-0.2,0.3-0.6,0.7-1,1.1C212.1,358.1,212.4,357.7,212.9,357.4z"/>
		</g>
	</g>
</g>
<g id="_x3C_Calque_x3E_">
</g>
</svg>
